<?xml version="1.0" encoding="UTF-8" standalone="no"?>
<!-- Created with Inkscape (http://www.inkscape.org/) -->

<svg
   width="550.38812mm"
   height="309.58475mm"
   viewBox="0 0 550.38812 309.58475"
   version="1.1"
   id="svg1"
   inkscape:version="1.3.2 (091e20e, 2023-11-25)"
   sodipodi:docname="dixadonwebbg.svg"
   xml:space="preserve"
   xmlns:inkscape="http://www.inkscape.org/namespaces/inkscape"
   xmlns:sodipodi="http://sodipodi.sourceforge.net/DTD/sodipodi-0.dtd"
   xmlns:xlink="http://www.w3.org/1999/xlink"
   xmlns="http://www.w3.org/2000/svg"
   xmlns:svg="http://www.w3.org/2000/svg"><sodipodi:namedview
     id="namedview1"
     pagecolor="#ffffff"
     bordercolor="#666666"
     borderopacity="1.0"
     inkscape:showpageshadow="2"
     inkscape:pageopacity="0.0"
     inkscape:pagecheckerboard="0"
     inkscape:deskcolor="#d1d1d1"
     inkscape:document-units="mm"
     inkscape:zoom="0.24365204"
     inkscape:cx="853.67641"
     inkscape:cy="642.30941"
     inkscape:window-width="1440"
     inkscape:window-height="790"
     inkscape:window-x="0"
     inkscape:window-y="25"
     inkscape:window-maximized="0"
     inkscape:current-layer="layer1" /><defs
     id="defs1"><linearGradient
       id="linearGradient1"
       inkscape:collect="always"><stop
         style="stop-color:#00ff00;stop-opacity:1"
         offset="0"
         id="stop1" /><stop
         style="stop-color:#008000;stop-opacity:1"
         offset="1"
         id="stop2" /></linearGradient><linearGradient
       inkscape:collect="always"
       xlink:href="#linearGradient1"
       id="linearGradient2"
       x1="-216.0954"
       y1="-66.240295"
       x2="205.23633"
       y2="149.8551"
       gradientUnits="userSpaceOnUse" /></defs><g
     inkscape:label="Layer 1"
     inkscape:groupmode="layer"
     id="layer1"
     transform="translate(114.52118,23.911016)"><rect
       style="fill:url(#linearGradient2);fill-opacity:1;stroke-width:0.239821"
       id="rect1"
       width="550.38812"
       height="309.58475"
       x="-114.52118"
       y="-23.911016" /><g
       inkscape:label="Layer 1"
       id="layer1-8"
       transform="matrix(1.1954432,0,0,1.2818792,32.800803,-122.7071)"
       style="fill:#f9f9f9"><path
         inkscape:connector-curvature="0"
         id="path2375"
         style="fill:#f9f9f9;fill-opacity:1;fill-rule:nonzero;stroke:none;stroke-width:1.19198"
         d="m -75.652529,177.06559 c 28.03534,0 43.59781,-14.30374 43.59781,-40.1649 0,-25.74674 -15.44804,-39.93605 -43.59781,-39.93605 h -32.498101 v 80.10095 z m -0.45772,-61.33444 c 12.81616,0 18.99537,6.98022 18.99537,21.28397 0,14.30374 -6.17921,21.28396 -18.99537,21.28396 h -8.12452 v -42.56793 z" /><path
         inkscape:connector-curvature="0"
         id="path2383"
         style="fill:#f9f9f9;fill-opacity:1;fill-rule:nonzero;stroke:none;stroke-width:1.19198"
         d="M -25.231899,177.06559 H -2.6892089 V 119.85062 H -25.231899 Z m 0,-63.96633 H -2.6892089 V 96.96464 H -25.231899 Z" /><path
         inkscape:connector-curvature="0"
         id="path2391"
         style="fill:#f9f9f9;fill-opacity:1;fill-rule:nonzero;stroke:none;stroke-width:1.19198"
         d="m 2.5031211,131.52248 16.7067699,16.93563 -16.7067699,16.93563 16.7067699,15.10475 13.960452,-17.73664 13.960453,17.73664 16.70677,-15.10475 -16.70677,-16.93563 16.70677,-16.93563 -16.70677,-15.10475 -13.960453,17.73664 -13.960452,-17.73664 z" /><path
         inkscape:connector-curvature="0"
         id="path2399"
         style="fill:#f9f9f9;fill-opacity:1;fill-rule:nonzero;stroke:none;stroke-width:1.19198"
         d="m 69.029896,177.06559 h 31.811524 l 6.40808,-6.63693 11.78628,12.35843 14.87589,-14.18931 -7.66681,-8.0101 V 119.85062 H 69.029896 Z m 22.542697,-18.07993 v -21.05511 h 12.129577 v 21.05511 z" /><path
         inkscape:connector-curvature="0"
         id="path2407"
         style="fill:#f9f9f9;fill-opacity:1;fill-rule:nonzero;stroke:none;stroke-width:1.19198"
         d="m 137.34457,177.06559 h 57.21497 V 96.96464 h -22.5427 v 22.88598 h -34.67227 z m 22.5427,-18.07993 v -21.05511 h 12.12957 v 21.05511 z" /><path
         inkscape:connector-curvature="0"
         id="path2415"
         style="fill:#f9f9f9;fill-opacity:1;fill-rule:nonzero;stroke:none;stroke-width:1.19198"
         d="m 201.42533,177.06559 h 57.21497 v -57.21497 h -57.21497 z m 22.5427,-18.07993 v -21.05511 h 12.12957 v 21.05511 z" /><path
         inkscape:connector-curvature="0"
         id="path2423"
         style="fill:#f9f9f9;fill-opacity:1;fill-rule:nonzero;stroke:none;stroke-width:1.19198"
         d="m 265.50609,177.06559 h 22.5427 v -39.13504 h 12.12957 v 39.13504 h 22.5427 v -57.21497 h -57.21497 z" /></g></g></svg>
